<svg xmlns="http://www.w3.org/2000/svg" width="138.9" height="43.6"><g fill="#a9a9b3" font-weight="400" letter-spacing="0" word-spacing="0"><g style="line-height:0%" aria-label="PotHix" font-family="Estrangelo Talada" font-size="27.5"><path style="line-height:1.25;-inkscape-font-specification:'Estrangelo Talada'" d="M62.5 10q0 1.8-1.2 3-1 1.1-2.7 1.7-.7.3-1.8.3H53v5.6h1q.7 0 .7.6t-.7.6h-3.2q-.7 0-.7-.6t.7-.6h1V6.4h-1q-.7 0-.7-.6t.7-.6H57q2.2 0 3.8 1.3Q62.5 8 62.5 10zm-1.2 0q0-1.5-1.3-2.6-1.3-1-2.9-1H53v7.4h3.7q1.7 0 3-1 1.6-1 1.6-2.8zM78.3 16.3q0 2.4-1.7 4.2-1.7 1.7-4.1 1.7-2.5 0-4.2-1.7-1.7-1.7-1.7-4.2t1.7-4.2q1.7-1.8 4.2-1.8 2.4 0 4.1 1.8 1.7 1.7 1.7 4.2zm-1 0q0-2-1.4-3.5-1.4-1.4-3.4-1.4T69 12.8q-1.4 1.4-1.4 3.5 0 2 1.4 3.4t3.4 1.4q2 0 3.4-1.4t1.4-3.4zM94.6 20.2q0 .7-1.8 1.4-1.3.6-2.6.6-1.7 0-2.9-1-1.2-.9-1.2-2.6v-6.4h-2.9q-.8 0-.8-.6t.8-.6H86V6q0-.8.6-.8t.6.8v5H93q.7 0 .7.6t-.7.6h-5.7v6.4q0 1.2 1 1.8.8.6 2 .6.5 0 1.8-.4.3 0 1.2-.5l.9-.4q.5 0 .5.5zM111.4 21.2q0 .5-.8.5h-3.1q-.8 0-.8-.5 0-.7.8-.7h1v-6.8h-7.8v6.8h1q.8 0 .8.7 0 .5-.8.5h-3.2q-.7 0-.7-.5 0-.7.7-.7h1v-14h-1q-.7 0-.7-.7 0-.6.7-.6h3.2q.8 0 .8.6t-.8.6h-1v6.2h7.7V6.4h-1q-.7 0-.7-.6t.8-.6h3q.9 0 .9.6t-.8.6h-1v14.1h1q.8 0 .8.7zM118.4 8.2h-1.7V5h1.7zm-1.1 12.3v-8.3h-1q-.8 0-.8-.6t.8-.6h2.1v9.5zm2.2 0q.7 0 .7.7 0 .5-.7.5h-3.2q-.8 0-.8-.5 0-.7.8-.7zM138.9 21.1q0 .6-.8.6h-3.6q-.8 0-.8-.6 0-.5.7-.6h1l-3.7-3.5-4 3.5h1q.8.1.8.6 0 .6-.8.6h-3.6q-.8 0-.8-.6 0-.5.7-.6h1l4.9-4.3-4.2-4h-1q-.8 0-.8-.6t.8-.6h3.6q.8 0 .8.6 0 .5-.8.6h-1l3.4 3.2 3.2-3.2h-1q-.8 0-.8-.6t.8-.6h3.6q.8 0 .8.6 0 .5-.7.6h-1l-4.1 4 4.6 4.3h1q.8.1.8.6z"/></g><g style="line-height:0%" aria-label=".com" font-family="Serto Kharput" font-size="17.5"><path style="line-height:1.25;-inkscape-font-specification:'Serto Kharput'" d="M53.2 37.7l-.3.6q-.3.3-.5.3l-.5-.3-.3-.6q0-.2.3-.5l.5-.4q.2 0 .5.4.3.3.3.5zM64 37.1q0 .4-.8.9-1.3.9-2.9.9-1.6 0-2.6-1-1-1.1-1-2.7 0-1.7 1-2.8 1-1 2.7-1 1.5 0 2.5.9V32q0-.4.4-.4.3 0 .3.4v1.6q0 .4-.3.4H63l-.1-.6q-.1-.4-.7-.9-.7-.5-1.9-.5-1.3 0-2.2.9-.8.9-.8 2.2 0 1.4.8 2.2 1 .9 2.2.9 1.7 0 3-1.2l.4-.2q.3 0 .3.3zM73.7 35q0 1.6-1 2.7-1.1 1.1-2.7 1.1-1.5 0-2.6-1-1.1-1.2-1.1-2.7 0-1.6 1-2.7 1.2-1.1 2.7-1.1 1.6 0 2.7 1 1 1.2 1 2.8zm-.6 0q0-1.2-1-2.1-.8-1-2-1-1.4 0-2.3 1-.9.9-.9 2.2 0 1.3 1 2.1.8 1 2.1 1t2.2-1q.9-.8.9-2.1zM90.3 38.2q0 .3-.5.3h-2q-.5 0-.5-.3 0-.4.5-.4h.7V34q0-.9-.7-1.4-.6-.5-1.5-.5-1.4 0-2.6 1.4v4.2h.7q.4 0 .4.4 0 .3-.4.3h-2q-.5 0-.5-.3 0-.4.5-.4h.6V34q0-.9-.7-1.4-.6-.5-1.4-.5-1 0-1.6.5l-1 1.3v3.8h.6q.5 0 .5.4 0 .3-.5.3h-2q-.5 0-.5-.3 0-.4.5-.4h.6v-5.3h-.6q-.5 0-.5-.4t.5-.4h1.3v1.1l1.2-1q.5-.4 1.5-.4 1.7 0 2.5 1.4 1.3-1.4 3-1.4 1 0 2 .7.8.7.8 1.9v3.8h.6q.5 0 .5.4z"/></g></g><g transform="matrix(1.03323 0 0 1.04294 -1.2 -1.3)"><rect width="41.3" height="40.9" x="1.6" y="1.7" fill="#f0f0f0" stroke="#000" stroke-width=".9" ry="4.6"/><g stroke-width=".2"><path fill-rule="evenodd" stroke="#000" stroke-width=".191892" d="M27.7 31l7.4 2.3c2.3 1 3.2 3.5 3.4 7.3h-34c-.2-4.2 1.6-5.4 5.6-7.4l8.7-2.2c4.1 2.4 7.9 2.2 9 0z"/><path fill="#fff" fill-rule="evenodd" stroke="#000" stroke-width=".191892" d="M34 8.6c0 8 .4 18.7-8.6 21.5-1 .4-1.9.3-2.8 0a11 11 0 01-5.3-4.3c-.9-1.5-1.7-3.6-2.2-6.7C11.4 5.6 16 3 27.1 4c2.2.2 6 1.2 7 4.7z"/><path fill="#646464" d="M14.1 15.3c.6 6.3 1.2 7.4 1.7 9.8.7 2 .4 6.2 2.3 8.4.8.8 1.6 1.5 3.4 2.1 1.6.7 3.7.4 5.3.4 1.6-.2 2.3-.6 3-1.2.8-1 1.2-4.4 1.5-5.5l1.2-4.7c.4-1.4.3-2 1.1-5 .2-.8.3-2.1.3-3.3 0 .2-.2 0-.2.2-.2 1.1-.2 2.7-.7 4.3l-.6 1.8-.9 2.2c0 .3-.2.9-2.5 3.2-.5.4-.5.6-1.7.7-.8-.3-.9-.7-1-1.2-.3-.5-.3-1.2-.2-2.5h-.6l-.5 2-.4.6c-.6.7-2.7 1.4-4 .8a7.4 7.4 0 01-2.3-2.2L16.9 24l-.9-2c-1-2.1-1.2-4.2-1.4-6z"/><path fill="#606060" fill-rule="evenodd" d="M34 8.6c-3-.6-6.2 1-8.3.3-12-4.2-10.3 4.4-10.6 10.2C11.4 5.6 16 3 27.1 4c2 .2 5.6 1.1 6.8 4.2 0 .2.3.5.1.5z" opacity=".4"/><path fill="none" stroke="#000" stroke-width=".191892" d="M27 15.9c0 .3 1.8 4 1.3 4l-1.6.5"/><path fill="#fff" fill-rule="evenodd" stroke="#666" stroke-width=".191892" d="M28.5 24.5l-5.2-1"/><g fill="#fff" stroke="#000" stroke-width=".6" transform="matrix(.33324 0 0 .33324 -35.8 -24.5)"><path fill-rule="evenodd" d="M183.4 111c6.8.6 7.1.2 7.1.2z"/><rect width="22.3" height="12.4" x="165.9" y="99.9" ry="1.2" transform="matrix(.9996 .02814 -.03277 .99946 0 0)"/><rect width="19.7" height="11.8" x="193.8" y="100.6" ry="1.2" transform="matrix(.99963 .02736 -.03316 .99945 0 0)"/></g><g fill="#666" fill-rule="evenodd" stroke="#4d4d4d" stroke-width="1.6"><path d="M550.8 243.7c.7.7 4.8 1.8 4.8 3.6v.5M555 241c0 1.6 2.1 2.5 3.1 3.7M557.4 238.4c0 .8 3.4 3.1 4.7 3.8M559.9 235.7c0 1 1.8.9 2.2 1.7l.6 1c.6 1.3-.8 1.5 1.2 1.5M562.4 232.6c.5 1 3 2.2 3.8 3.6M565.7 230.6c.7 1.3 4.6 3.7 6.8 4M567 226.8c.3.7 3.3 3 5.8 3.6 2.1.5.8-.2 1.2-.3" transform="matrix(-.07235 -.08706 .12767 -.05337 36 83.8)"/><path d="M569.5 224c1.7.5 2.5 2.9 2.5 4.8v.5M572.5 221.8c0 1.7 7.2 4 7.6 4M572.5 218c0 2 4.2.8 6 1.7.8.4 1.6.4 2.3.5" transform="matrix(-.07235 -.08706 .12767 -.05337 36 83.8)"/><g><path d="M550.8 243.7c.7.7 4.8 1.8 4.8 3.6v.5M555 241c0 1.6 2.1 2.5 3.1 3.7M557.4 238.4c0 .8 3.4 3.1 4.7 3.8M559.9 235.7c0 1 1.8.9 2.2 1.7l.6 1c.6 1.3-.8 1.5 1.2 1.5M562.4 232.6c.5 1 3 2.2 3.8 3.6M565.7 230.6c.7 1.3 4.6 3.7 6.8 4M567 226.8c.3.7 3.3 3 5.8 3.6 2.1.5.8-.2 1.2-.3" transform="matrix(-.07235 -.08706 .12767 -.05337 38.6 84.2)"/><path d="M569.5 224c1.7.5 2.5 2.9 2.5 4.8v.5M572.5 221.8c0 1.7 7.2 4 7.6 4M572.5 218c0 2 4.2.8 6 1.7.8.4 1.6.4 2.3.5" transform="matrix(-.07235 -.08706 .12767 -.05337 38.6 84.2)"/></g><g><path d="M550.8 243.7c.7.7 4.8 1.8 4.8 3.6v.5M555 241c0 1.6 2.1 2.5 3.1 3.7M557.4 238.4c0 .8 3.4 3.1 4.7 3.8M559.9 235.7c0 1 1.8.9 2.2 1.7l.6 1c.6 1.3-.8 1.5 1.2 1.5M562.4 232.6c.5 1 3 2.2 3.8 3.6M565.7 230.6c.7 1.3 4.6 3.7 6.8 4M567 226.8c.3.7 3.3 3 5.8 3.6 2.1.5.8-.2 1.2-.3" transform="matrix(-.07235 -.08706 .12767 -.05337 36.2 84.2)"/><path d="M569.5 224c1.7.5 2.5 2.9 2.5 4.8v.5M572.5 221.8c0 1.7 7.2 4 7.6 4M572.5 218c0 2 4.2.8 6 1.7.8.4 1.6.4 2.3.5" transform="matrix(-.07235 -.08706 .12767 -.05337 36.2 84.2)"/><g><path d="M550.8 243.7c.7.7 4.8 1.8 4.8 3.6v.5M555 241c0 1.6 2.1 2.5 3.1 3.7M557.4 238.4c0 .8 3.4 3.1 4.7 3.8M559.9 235.7c0 1 1.8.9 2.2 1.7l.6 1c.6 1.3-.8 1.5 1.2 1.5M562.4 232.6c.5 1 3 2.2 3.8 3.6M565.7 230.6c.7 1.3 4.6 3.7 6.8 4M567 226.8c.3.7 3.3 3 5.8 3.6 2.1.5.8-.2 1.2-.3" transform="matrix(-.07235 -.08706 .12767 -.05337 38.8 84.6)"/><path d="M569.5 224c1.7.5 2.5 2.9 2.5 4.8v.5M572.5 221.8c0 1.7 7.2 4 7.6 4M572.5 218c0 2 4.2.8 6 1.7.8.4 1.6.4 2.3.5M547.7 240.7c.7.7 4.8 1.7 4.8 3.5v.5M544.3 240.8c.7.7 4.8 1.8 4.8 3.6v.5M549.9 240c.7.7 4.8 1.8 4.8 3.5v.6M584.2 200.4c.8.6 4.8 1.7 4.8 3.5v.5M588.7 202.3c.7.7 4.8 1.8 4.8 3.6v.5M589 199.7c.7.7 4.8 1.8 4.8 3.6v.5M584.2 195.7c.7.7 4.8 1.7 4.8 3.5v.5M579.4 196.3c.8.7 4.8 1.8 4.8 3.6v.5M579.6 194c.7.8 4.8 1.9 4.8 3.6v.5" transform="matrix(-.07235 -.08706 .12767 -.05337 38.8 84.6)"/></g></g></g></g></g></svg>